<svg width="109" height="27" viewBox="0 0 109 27" fill="none" xmlns="http://www.w3.org/2000/svg">
<path d="M7.06 20.182C5.79467 20.182 4.65067 19.9653 3.628 19.532C2.62267 19.0987 1.82533 18.4747 1.236 17.66C0.646667 16.8453 0.343333 15.8833 0.326 14.774H4.226C4.278 15.5193 4.538 16.1087 5.006 16.542C5.49133 16.9753 6.15 17.192 6.982 17.192C7.83133 17.192 8.49867 16.9927 8.984 16.594C9.46933 16.178 9.712 15.6407 9.712 14.982C9.712 14.4447 9.54733 14.0027 9.218 13.656C8.88867 13.3093 8.47267 13.0407 7.97 12.85C7.48467 12.642 6.80867 12.4167 5.942 12.174C4.76333 11.8273 3.80133 11.4893 3.056 11.16C2.328 10.8133 1.69533 10.302 1.158 9.626C0.638 8.93267 0.378 8.014 0.378 6.87C0.378 5.79533 0.646667 4.85933 1.184 4.062C1.72133 3.26467 2.47533 2.658 3.446 2.242C4.41667 1.80867 5.526 1.592 6.774 1.592C8.646 1.592 10.1627 2.05133 11.324 2.97C12.5027 3.87133 13.1527 5.13667 13.274 6.766H9.27C9.23533 6.142 8.96667 5.63067 8.464 5.232C7.97867 4.816 7.32867 4.608 6.514 4.608C5.80333 4.608 5.23133 4.79 4.798 5.154C4.382 5.518 4.174 6.04667 4.174 6.74C4.174 7.22533 4.33 7.63267 4.642 7.962C4.97133 8.274 5.37 8.534 5.838 8.742C6.32333 8.93267 6.99933 9.158 7.866 9.418C9.04467 9.76467 10.0067 10.1113 10.752 10.458C11.4973 10.8047 12.1387 11.3247 12.676 12.018C13.2133 12.7113 13.482 13.6213 13.482 14.748C13.482 15.7187 13.2307 16.62 12.728 17.452C12.2253 18.284 11.4887 18.9513 10.518 19.454C9.54733 19.9393 8.39467 20.182 7.06 20.182ZM29.7157 5.596V20H26.0498V18.18C25.5818 18.804 24.9664 19.298 24.2038 19.662C23.4584 20.0087 22.6437 20.182 21.7597 20.182C20.6331 20.182 19.6364 19.948 18.7697 19.48C17.9031 18.9947 17.2184 18.2927 16.7157 17.374C16.2304 16.438 15.9877 15.3287 15.9877 14.046V5.596H19.6277V13.526C19.6277 14.67 19.9137 15.554 20.4858 16.178C21.0577 16.7847 21.8377 17.088 22.8258 17.088C23.8311 17.088 24.6198 16.7847 25.1917 16.178C25.7638 15.554 26.0498 14.67 26.0498 13.526V5.596H29.7157ZM36.4272 7.676C36.8952 7.01733 37.5365 6.47133 38.3512 6.038C39.1832 5.58733 40.1279 5.362 41.1852 5.362C42.4159 5.362 43.5252 5.66533 44.5132 6.272C45.5185 6.87867 46.3072 7.74533 46.8792 8.872C47.4685 9.98133 47.7632 11.2727 47.7632 12.746C47.7632 14.2193 47.4685 15.528 46.8792 16.672C46.3072 17.7987 45.5185 18.674 44.5132 19.298C43.5252 19.922 42.4159 20.234 41.1852 20.234C40.1279 20.234 39.1919 20.0173 38.3772 19.584C37.5799 19.1507 36.9299 18.6047 36.4272 17.946V26.864H32.7872V5.596H36.4272V7.676ZM44.0452 12.746C44.0452 11.8793 43.8632 11.134 43.4992 10.51C43.1525 9.86867 42.6845 9.38333 42.0952 9.054C41.5232 8.72467 40.8992 8.56 40.2232 8.56C39.5645 8.56 38.9405 8.73333 38.3512 9.08C37.7792 9.40933 37.3112 9.89467 36.9472 10.536C36.6005 11.1773 36.4272 11.9313 36.4272 12.798C36.4272 13.6647 36.6005 14.4187 36.9472 15.06C37.3112 15.7013 37.7792 16.1953 38.3512 16.542C38.9405 16.8713 39.5645 17.036 40.2232 17.036C40.8992 17.036 41.5232 16.8627 42.0952 16.516C42.6845 16.1693 43.1525 15.6753 43.4992 15.034C43.8632 14.3927 44.0452 13.63 44.0452 12.746ZM49.4983 10.9C49.4983 9.09733 49.871 7.494 50.6163 6.09C51.379 4.66867 52.419 3.55933 53.7363 2.762C55.071 1.96467 56.5616 1.566 58.2083 1.566C60.2883 1.566 62.039 2.05133 63.4603 3.022C64.8816 3.99267 65.9216 5.35333 66.5803 7.104H65.2283C64.7083 5.71733 63.8416 4.62533 62.6283 3.828C61.4323 3.01333 59.959 2.606 58.2083 2.606C56.8043 2.606 55.5303 2.944 54.3863 3.62C53.2423 4.27867 52.341 5.24067 51.6823 6.506C51.0236 7.754 50.6943 9.21867 50.6943 10.9C50.6943 12.564 51.0236 14.02 51.6823 15.268C52.341 16.4987 53.2423 17.452 54.3863 18.128C55.5303 18.804 56.8043 19.142 58.2083 19.142C59.959 19.142 61.4323 18.7433 62.6283 17.946C63.8416 17.1313 64.7083 16.0307 65.2283 14.644H66.5803C65.9216 16.3947 64.8816 17.7553 63.4603 18.726C62.039 19.6967 60.2883 20.182 58.2083 20.182C56.5616 20.182 55.071 19.792 53.7363 19.012C52.419 18.2147 51.379 17.114 50.6163 15.71C49.871 14.2887 49.4983 12.6853 49.4983 10.9ZM76.1101 5.596C77.7741 5.596 79.1348 6.116 80.1921 7.156C81.2494 8.17867 81.7781 9.704 81.7781 11.732V20H80.6341V11.81C80.6341 10.1287 80.2094 8.846 79.3601 7.962C78.5108 7.06067 77.3581 6.61 75.9021 6.61C74.3768 6.61 73.1548 7.09533 72.2361 8.066C71.3348 9.03667 70.8841 10.4753 70.8841 12.382V20H69.7141V0.76H70.8841V8.872C71.2828 7.81467 71.9501 7.00867 72.8861 6.454C73.8221 5.882 74.8968 5.596 76.1101 5.596ZM84.6653 12.928C84.6653 11.472 84.9513 10.198 85.5233 9.106C86.1127 8.014 86.9187 7.17333 87.9413 6.584C88.9813 5.99467 90.16 5.7 91.4773 5.7C92.968 5.7 94.2333 6.064 95.2733 6.792C96.3133 7.52 97.0413 8.44733 97.4573 9.574V5.882H98.6273V20H97.4573V16.282C97.0413 17.426 96.3047 18.3707 95.2473 19.116C94.2073 19.844 92.9507 20.208 91.4773 20.208C90.16 20.208 88.9813 19.9133 87.9413 19.324C86.9187 18.7173 86.1127 17.868 85.5233 16.776C84.9513 15.6667 84.6653 14.384 84.6653 12.928ZM97.4573 12.928C97.4573 11.6973 97.1973 10.614 96.6773 9.678C96.1747 8.72467 95.4813 7.99667 94.5973 7.494C93.7133 6.974 92.7253 6.714 91.6333 6.714C90.4893 6.714 89.484 6.96533 88.6173 7.468C87.7507 7.95333 87.0747 8.664 86.5893 9.6C86.104 10.536 85.8613 11.6453 85.8613 12.928C85.8613 14.2107 86.104 15.32 86.5893 16.256C87.0747 17.192 87.7507 17.9113 88.6173 18.414C89.5013 18.9167 90.5067 19.168 91.6333 19.168C92.7253 19.168 93.7133 18.9167 94.5973 18.414C95.4987 17.894 96.2007 17.166 96.7033 16.23C97.206 15.2767 97.4573 14.176 97.4573 12.928ZM104.109 6.896V16.23C104.109 17.27 104.3 17.9893 104.681 18.388C105.063 18.7693 105.739 18.96 106.709 18.96H108.295V20H106.527C105.297 20 104.387 19.714 103.797 19.142C103.225 18.5527 102.939 17.582 102.939 16.23V6.896H100.807V5.882H102.939V2.294H104.109V5.882H108.295V6.896H104.109Z" fill="white"/>
</svg>
